<?xml version="1.0" encoding="UTF-8" standalone="no"?>
<svg
   width="0.58772898in"
   height="0.58797783in"
   viewBox="0 0 176.31834 176.393"
   version="1.1"
   id="svg5"
   sodipodi:docname="letters.svg"
   inkscape:version="1.1 (c68e22c387, 2021-05-23)"
   xmlns:inkscape="http://www.inkscape.org/namespaces/inkscape"
   xmlns:sodipodi="http://sodipodi.sourceforge.net/DTD/sodipodi-0.dtd"
   xmlns:xlink="http://www.w3.org/1999/xlink"
   xmlns="http://www.w3.org/2000/svg"
   xmlns:svg="http://www.w3.org/2000/svg">
  <defs
     id="defs9">
    <linearGradient
       inkscape:collect="always"
       id="linearGradient3167">
      <stop
         style="stop-color:#ffff00;stop-opacity:1;"
         offset="0"
         id="stop3163" />
      <stop
         style="stop-color:#00ffff;stop-opacity:1"
         offset="1"
         id="stop3165" />
    </linearGradient>
    <linearGradient
       inkscape:collect="always"
       id="linearGradient2153">
      <stop
         style="stop-color:#00ffff;stop-opacity:1;"
         offset="0"
         id="stop2149" />
      <stop
         style="stop-color:#ffff00;stop-opacity:1"
         offset="1"
         id="stop2151" />
    </linearGradient>
    <radialGradient
       inkscape:collect="always"
       xlink:href="#linearGradient2153"
       id="radialGradient2155"
       cx="1453.9741"
       cy="327.56863"
       fx="1453.9741"
       fy="327.56863"
       r="64.604088"
       gradientTransform="matrix(1.1679101,-0.8745322,1.0438225,1.3940029,-1949.2042,920.32108)"
       gradientUnits="userSpaceOnUse" />
    <radialGradient
       inkscape:collect="always"
       xlink:href="#linearGradient3167"
       id="radialGradient3169"
       cx="215.33971"
       cy="336.32501"
       fx="215.33971"
       fy="336.32501"
       r="88.159164"
       gradientTransform="matrix(-1.6054096,1.3342295,-0.63950879,-0.76933446,670.61166,55.022015)"
       gradientUnits="userSpaceOnUse" />
  </defs>
  <sodipodi:namedview
     id="namedview7"
     pagecolor="#505050"
     bordercolor="#eeeeee"
     borderopacity="1"
     inkscape:pageshadow="0"
     inkscape:pageopacity="0"
     inkscape:pagecheckerboard="0"
     inkscape:document-units="in"
     showgrid="false"
     inkscape:lockguides="false"
     inkscape:zoom="3.6743091"
     inkscape:cx="4.4906402"
     inkscape:cy="16.057441"
     inkscape:window-width="1600"
     inkscape:window-height="831"
     inkscape:window-x="0"
     inkscape:window-y="0"
     inkscape:window-maximized="1"
     inkscape:current-layer="svg5" />
  <path
     id="circle #1"
     fill="none"
     stroke="#000000"
     stroke-width="1"
     d="m 74.534718,1.2972848 c 30.040002,-3.85 60.770002,6.28 80.700002,29.5600002 34.55,40.37 24.67,107.659995 -22.7,133.689995 -19.67,10.8 -30.25,11.56 -52.000002,11.31 -5.77,-0.07 -10.46,-1.21 -16,-2.63 -27.2,-6.97 -49.87,-27.95 -59.2999997,-54.37 -5.16999998,-14.46 -4.76999998,-22.209995 -4.69999998,-36.999995 0.05,-11.3 3.73999998,-22.97 8.74999998,-33 C 22.904718,21.627285 45.044718,6.7472848 74.534718,1.2972848 Z"
     style="display:inline;fill:url(#radialGradient3169);fill-opacity:1" />
  <path
     id="circle #2"
     fill="none"
     stroke="#000000"
     stroke-width="1"
     d="m 77.534718,5.0672848 c 0,0 13,0 13,0 8.54,-0.17 16.940002,1.75 25.000002,4.46 56.79,19.1100002 73.13,92.2899952 32.91,135.3299952 -6.48,6.94 -16.21,14.22 -24.91,18.14 -13.02,5.86 -24.800002,8.02 -39.000002,7.86 -11.81,-0.14 -23.5,-3.51 -34,-8.75 -30.29,-15.15 -46.3899997,-43.78 -45.9999997,-77.249995 0.35,-29.97 19.5099997,-58.39 45.9999997,-71.63 8.45,-4.2300002 17.73,-6.4300002 27,-8.1600002 z"
     style="display:inline;fill:#000000" />
  <path
     id="letters"
     fill="none"
     stroke="#000000"
     stroke-width="1"
     d="m 72.830398,60.405465 c 4.87,-4.01 7.4,-8.15 13,-11.75 12.04,-7.75 31.360002,-8.69 44.000002,-1.93 6.12,3.28 15.03,8.83 14,16.68 0,0 -2,0 -2,0 -4.63,-6.11 -9.81,-11.51 -17,-14.54 -14,-5.89 -31.070002,-3.23 -41.960002,7.58 -3.92,3.89 -5.94,6.54 -7.04,11.96 0,0 8.18,-9.7 8.18,-9.7 6.92,-6.71 15.43,-9.29 24.820002,-9.3 9.36,-0.01 16.52,1.08 24,7.33 3.7,3.1 7.7,6.19 4,10.67 -9.81,-11.92 -22.65,-18.13 -38.000002,-12.9 -9.47,3.23 -21.98,13.88 -18,24.9 1.62,-7.95 4.93,-15.32 12,-19.87 12.160002,-7.81 35.750002,-5.51 41.000002,9.87 0,0 -1,1 -1,1 -7.56,-3.88 -10.54,-12.59 -25,-11.48 -28.780002,2.2 -31.100002,42.329995 -5,49.129995 6.39,1.67 13.19,1.1 19,-2.18 5.32,-3.01 5.42,-5.41 12,-6.469995 -7.33,15.469995 -30.71,16.789995 -43.000002,6.999995 4.59,12.5 28.830002,9.49 38.000002,2.47 4.9,-3.75 6.1,-7.65 12,-9.469995 -4.66,18.809995 -31.63,22.729995 -47.000002,15.999995 2.91,5.01 4.47,5.15 10.000002,6.08 11.68,1.97 24.3,-1.96 32.71,-10.37 5.65,-5.64 5.56,-10.56 12.29,-11.709995 -4.85,13.629995 -16.55,23.619995 -31,25.849995 0,0 -11,0 -11,0 -4.52,0.09 -5.81,-0.11 -10.000002,-1.85 0,0 1,4 1,4 -1.27,-0.22 -2.16,-0.12 -3.31,-0.99 -2.33,-1.77 -5.29,-11.81 -6.5,-15.01 0,0 -14.61,-39.999995 -14.61,-39.999995 -2.55,-6.8 -6.34,-12.93 -3.58,-20 0,0 3,9 3,9 z m -51,66.999995 c 0,0 21.31,-59.999995 21.31,-59.999995 0,0 7.39,-18.41 7.39,-18.41 0,0 3.3,-1.59 3.3,-1.59 0,0 -7.31,22 -7.31,22 0,0 -20.69,57.999995 -20.69,57.999995 0,0 -4,0 -4,0 z m 35,-79.999995 c 0,0 4,0 4,0 0,0 -7.95,24 -7.95,24 0,0 -20.05,55.999995 -20.05,55.999995 0,0 -4,0 -4,0 0,0 28,-79.999995 28,-79.999995 z m -21,79.999995 c 0,0 21.31,-59.999995 21.31,-59.999995 0,0 7.39,-18.41 7.39,-18.41 0,0 3.3,-1.59 3.3,-1.59 0,0 -7.95,24 -7.95,24 0,0 -20.05,55.999995 -20.05,55.999995 0,0 -4,0 -4,0 z m 30,-65.999995 c 0,0 8.42,20 8.42,20 0,0 16.58,45.999995 16.58,45.999995 -1.26,-0.22 -2.17,-0.12 -3.3,-0.99 -2.01,-1.54 -5.05,-11.17 -6.12,-14.01 0,0 -11.63,-31.999995 -11.63,-31.999995 -2.43,-6.65 -5.54,-11.81 -3.95,-19 z m -3,10 c 0,0 7.42,18 7.42,18 0,0 13.58,37.999995 13.58,37.999995 -5.88,-1.01 -6.42,-6.85 -8.32,-12 0,0 -10.63,-28.999995 -10.63,-28.999995 -2.08,-5.7 -4.44,-9.15 -2.05,-15 z m 47.000002,9 c 0,0 40,0 40,0 0,0 0,3 0,3 0,0 -40,0 -40,0 0,0 0,-3 0,-3 z m 0,6 c 0,0 40,0 40,0 0,0 0,3 0,3 0,0 -40,0 -40,0 0,0 0,-3 0,-3 z m 0,7 c 0,0 40,0 40,0 0,0 0,3 0,3 0,0 -40,0 -40,0 0,0 0,-3 0,-3 z m -58.000002,7.999995 c 3.36,-4.479995 12.64,-4.479995 16,0 0,0 -16,0 -16,0 z m -2,3 c 0,0 20,0 20,0 0,0 0,3 0,3 0,0 -20,0 -20,0 0,0 0,-3 0,-3 z m 41,1 c 0,0 -1,0 -1,0 0,0 1,1 1,1 0,0 0,-1 0,-1 z m -44,9 c 3.67,-4.89 12.44,-3.03 18,-3 1.58,0.01 4.16,-0.09 5.59,0.57 1.45,0.67 1.57,1.31 2.41,2.43 0,0 -26,0 -26,0 z"
     style="fill:url(#radialGradient2155);fill-opacity:1" />
</svg>
