<?xml version="1.0" encoding="UTF-8" standalone="no"?>
<svg
   width="0.58772898in"
   height="0.58797783in"
   viewBox="0 0 176.31834 176.393"
   version="1.1"
   id="svg5"
   sodipodi:docname="letters.svg"
   inkscape:version="1.1 (c68e22c387, 2021-05-23)"
   xmlns:inkscape="http://www.inkscape.org/namespaces/inkscape"
   xmlns:sodipodi="http://sodipodi.sourceforge.net/DTD/sodipodi-0.dtd"
   xmlns="http://www.w3.org/2000/svg"
   xmlns:svg="http://www.w3.org/2000/svg">
  <defs
     id="defs9" />
  <sodipodi:namedview
     id="namedview7"
     pagecolor="#505050"
     bordercolor="#eeeeee"
     borderopacity="1"
     inkscape:pageshadow="0"
     inkscape:pageopacity="0"
     inkscape:pagecheckerboard="0"
     inkscape:document-units="in"
     showgrid="false"
     inkscape:lockguides="false"
     inkscape:zoom="7.3486182"
     inkscape:cx="10.00188"
     inkscape:cy="39.327121"
     inkscape:window-width="1366"
     inkscape:window-height="731"
     inkscape:window-x="0"
     inkscape:window-y="0"
     inkscape:window-maximized="1"
     inkscape:current-layer="svg5" />
  <path
     id="circle #1"
     fill="none"
     stroke="#000000"
     stroke-width="1"
     d="m 74.534718,1.2972848 c 30.040002,-3.85 60.770002,6.28 80.700002,29.5600002 34.55,40.37 24.67,107.659995 -22.7,133.689995 -19.67,10.8 -30.25,11.56 -52.000002,11.31 -5.77,-0.07 -10.46,-1.21 -16,-2.63 -27.2,-6.97 -49.87,-27.95 -59.2999997,-54.37 -5.16999998,-14.46 -4.76999998,-22.209995 -4.69999998,-36.999995 0.05,-11.3 3.73999998,-22.97 8.74999998,-33 C 22.904718,21.627285 45.044718,6.7472848 74.534718,1.2972848 Z"
     style="display:inline;fill:#00bcd4;fill-opacity:1" />
  <path
     id="circle #2"
     fill="none"
     stroke="#000000"
     stroke-width="1"
     d="m 77.534718,5.0672848 c 0,0 13,0 13,0 8.54,-0.17 16.940002,1.75 25.000002,4.46 56.79,19.1100002 73.13,92.2899952 32.91,135.3299952 -6.48,6.94 -16.21,14.22 -24.91,18.14 -13.02,5.86 -24.800002,8.02 -39.000002,7.86 -11.81,-0.14 -23.5,-3.51 -34,-8.75 -30.29,-15.15 -46.3899997,-43.78 -45.9999997,-77.249995 0.35,-29.97 19.5099997,-58.39 45.9999997,-71.63 8.45,-4.2300002 17.73,-6.4300002 27,-8.1600002 z"
     style="display:inline;fill:#232323;fill-opacity:1" />
  <path
     id="text135777"
     style="font-size:116.666px;line-height:1.25;font-family:'Zen Tokyo Zoo';-inkscape-font-specification:'Zen Tokyo Zoo, Normal';fill:#ffffff;stroke-width:0.999999"
     transform="scale(3.1249938)"
     d="m 36.773438,11.972656 c -2.339547,0 -4.468329,0.411092 -6.384766,1.232422 -1.891549,0.796442 -3.521741,1.903604 -4.890625,3.322266 -0.471737,0.488891 -0.893173,1.017449 -1.291016,1.5625 0.01359,0.07474 0.02832,0.148925 0.04102,0.222656 0.07549,0.02405 0.13538,0.02846 0.21875,0.0625 0.236038,0.09639 0.397492,0.291553 0.521484,0.525391 0.39529,-0.557253 0.817287,-1.093555 1.292969,-1.587891 1.269329,-1.319106 2.787583,-2.352946 4.554688,-3.099609 1.767104,-0.746664 3.747285,-1.119141 5.9375,-1.119141 2.812433,0 5.262856,0.610527 7.353515,1.830078 2.115548,1.219551 3.770182,2.83557 4.964844,4.851563 L 50.0625,19.140625 c -1.294217,-2.165325 -3.085231,-3.893283 -5.375,-5.1875 -2.289769,-1.319106 -4.927407,-1.980469 -7.914062,-1.980469 z m 0,2.464844 c -1.991104,0 -3.796291,0.335815 -5.414063,1.007812 -1.592883,0.671998 -2.974758,1.61834 -4.144531,2.837891 -0.604052,0.630315 -1.131287,1.319378 -1.589844,2.060547 0.02658,0.07039 0.05318,0.140604 0.08008,0.210938 0.08894,0.232583 0.199108,0.45842 0.269531,0.697265 0.06251,0.212006 0.109718,0.379176 0.152344,0.535156 0.04278,-0.08372 0.07233,-0.173043 0.117188,-0.255859 0.970663,-1.816882 2.352538,-3.25986 4.144531,-4.330078 1.816882,-1.070218 3.945664,-1.605469 6.384766,-1.605469 2.364435,0 4.415987,0.508856 6.158203,1.529297 1.742215,0.995552 3.11187,2.328544 4.107421,3.996094 l 0.970704,-0.634766 C 46.939547,18.669446 45.433514,17.212295 43.492188,16.117188 41.57575,14.997192 39.336983,14.4375 36.773438,14.4375 Z m 0,2.464844 c -2.215103,0 -4.120008,0.484415 -5.712891,1.455078 -1.592883,0.945774 -2.811984,2.227931 -3.658203,3.845703 -0.228756,0.430599 -0.422927,0.876104 -0.589844,1.333984 0.123781,0.162709 0.229656,0.310006 0.287109,0.400391 0.09867,0.155225 0.177061,0.321218 0.265625,0.482422 0.04449,0.270724 0.01949,0.562642 0.132813,0.8125 6e-4,0.0013 0.0013,0.0026 0.002,0.0039 0.185556,-0.857858 0.470933,-1.67153 0.873047,-2.435547 0.746664,-1.44355 1.829385,-2.589328 3.248047,-3.435547 1.44355,-0.871107 3.16124,-1.30664 5.152344,-1.30664 1.916437,0 3.571071,0.411091 4.964843,1.232422 1.393773,0.796441 2.464274,1.866942 3.210938,3.210937 l 0.970703,-0.634765 C 45.073703,20.37386 43.864869,19.1792 42.296875,18.283203 40.75377,17.362318 38.913874,16.902344 36.773438,16.902344 Z m 0.07422,9.220703 v 1.119141 h 14.671875 v -1.119141 z m 0,2.462891 v 1.121093 h 14.671875 v -1.121093 z m 0,2.464843 v 1.119141 h 14.671875 v -1.119141 z m 7.541016,2.388672 c -0.771553,1.070218 -1.805392,1.941284 -3.09961,2.613281 -1.294217,0.647109 -2.798298,0.970704 -4.515624,0.970704 -1.954935,-10e-7 -3.643219,-0.412761 -5.070313,-1.228516 0.03837,0.138226 0.07793,0.287737 0.08984,0.414062 0.01304,0.13826 -0.02977,0.282886 0.0098,0.416016 0.03762,0.126679 -0.0029,-0.264343 -0.0039,-0.396484 0.191501,0.371006 0.350478,0.755311 0.494141,1.144531 1.31669,0.537961 2.809857,0.808594 4.480469,0.808594 2.06577,0 3.869004,-0.423313 5.412109,-1.269532 1.543105,-0.871107 2.749986,-2.029106 3.621094,-3.472656 z m 2.949219,0 c -0.945775,1.816882 -2.32765,3.286254 -4.144532,4.40625 -1.816882,1.095107 -3.955931,1.642578 -6.419921,1.642578 -1.437701,0 -2.764811,-0.190666 -3.986329,-0.5625 0.005,0.01764 0.01068,0.03509 0.01563,0.05273 0.124077,0.480845 0.127547,0.460388 0.21875,0.986328 0.01259,0.07253 0.01814,0.14596 0.02734,0.21875 1.160912,0.298326 2.39796,0.460937 3.72461,0.460937 2.812433,0 5.238415,-0.659409 7.279296,-1.978515 2.040882,-1.343995 3.559136,-3.086126 4.554688,-5.226563 z m 2.724609,0 c -0.696886,1.667549 -1.67989,3.149142 -2.949219,4.443359 -1.269328,1.294218 -2.775362,2.301663 -4.517578,3.023438 -1.742216,0.721775 -3.681829,1.083984 -5.822265,1.083984 -1.079668,0 -2.107133,-0.09395 -3.083985,-0.27539 -0.01537,0.109125 -0.04434,0.218942 -0.103515,0.328125 0.163618,0.239257 0.284007,0.503399 0.380859,0.777343 0.01728,0.02426 0.02792,0.04673 0.04102,0.07031 0.888893,0.134145 1.805468,0.21875 2.765626,0.21875 2.364435,0 4.503484,-0.411092 6.419921,-1.232422 1.916438,-0.82133 3.558851,-1.952934 4.927735,-3.396484 1.393772,-1.468439 2.452053,-3.149467 3.173828,-5.041016 z m -16.095703,9.380859 c -0.07381,-0.103643 -0.200757,-0.199991 -0.335938,-0.300781 0.02214,0.105526 0.03767,0.216944 0.05273,0.326172 0.101249,0.01729 0.206402,0.02745 0.308594,0.04297 -0.0086,-0.02284 -0.01728,-0.04541 -0.02539,-0.06836 z m -3.570313,-7.974609 c 0.04599,0.08091 0.09229,0.16164 0.138672,0.242188 0.05556,0.0039 0.09539,0.0038 0.144532,0.0059 -0.09921,-0.07866 -0.188157,-0.165998 -0.283204,-0.248047 z m 1.152344,0.857422 c 0.0055,0.01406 0.0105,0.02841 0.01563,0.04297 0.0027,-0.0091 0.0051,-0.01827 0.0078,-0.02734 -0.0081,-0.005 -0.01535,-0.01056 -0.02344,-0.01563 z m 1.871094,7.03125 c 0.01012,0.01799 0.01873,0.03694 0.0293,0.05469 0.0021,9.76e-4 0.0038,0.0029 0.0059,0.0039 0.0063,0.0082 -0.02061,-0.04985 -0.02148,-0.05664 -0.0045,-6.08e-4 -0.0091,-0.0013 -0.01367,-0.002 z" />
  <g
     aria-label="A
"
     id="text117335"
     style="font-size:116.666px;line-height:1.25;font-family:'Zen Tokyo Zoo';-inkscape-font-specification:'Zen Tokyo Zoo, Normal';fill:#ffffff;stroke-width:3.12499">
    <path
       d="M 36.108424,134.72758 70.05823,40.928121 h 3.733312 L 39.841736,134.72758 Z m -16.33324,0 33.949806,-93.799459 h 3.616646 l -33.83314,93.799459 z m 8.16662,0 33.83314,-93.799459 h 3.849978 L 31.675116,134.72758 Z m 76.532896,0 -30.449826,-84.116181 1.866656,-5.24997 32.31648,89.366151 z m -8.16662,0 -26.24985,-72.682913 1.74999,-5.366636 28.23317,78.049549 z m -8.16662,0 -22.16654,-61.366311 1.866656,-5.24997 24.033196,66.616281 z m -33.016478,-31.03315 1.283326,-3.49998 H 71.80822 l 1.283326,3.49998 z m -2.799984,7.81662 1.283326,-3.49998 h 20.99988 l 1.283326,3.49998 z m -2.799984,7.69996 1.283326,-3.49998 h 26.599848 l 1.283326,3.49998 z"
       id="path133684" />
  </g>
</svg>
