<?xml version="1.0" encoding="UTF-8" standalone="no"?>
<!DOCTYPE svg PUBLIC "-//W3C//DTD SVG 20010904//EN"
              "http://www.w3.org/TR/2001/REC-SVG-20010904/DTD/svg10.dtd">

<svg xmlns="http://www.w3.org/2000/svg"
     width="18.2857in" height="18.2857in"
     viewBox="0 0 1280 1280">
      <path id="Selection #3"
        fill="#37474f" stroke="black" stroke-width="1"
        d="M 625.00,32.21
           C 625.00,32.21 667.00,32.21 667.00,32.21
             667.00,32.21 687.00,33.00 687.00,33.00
             687.00,33.00 697.00,33.91 697.00,33.91
             735.11,36.53 773.09,42.85 810.00,52.85
             912.93,80.72 1002.84,131.23 1080.00,205.04
             1080.00,205.04 1098.09,224.00 1098.09,224.00
             1161.34,291.90 1206.72,368.23 1234.02,457.00
             1243.20,486.83 1249.82,517.13 1254.27,548.00
             1254.27,548.00 1258.09,584.00 1258.09,584.00
             1258.09,584.00 1259.00,594.00 1259.00,594.00
             1259.00,594.00 1260.00,614.00 1260.00,614.00
             1260.00,614.00 1260.00,648.00 1260.00,648.00
             1260.00,648.00 1259.00,666.00 1259.00,666.00
             1259.00,666.00 1258.09,676.00 1258.09,676.00
             1258.09,676.00 1254.27,712.00 1254.27,712.00
             1249.39,745.87 1241.95,779.44 1231.33,812.00
             1187.68,945.88 1097.51,1060.15 978.00,1134.58
             923.05,1168.80 865.54,1192.70 803.00,1209.12
             768.43,1218.19 732.59,1223.64 697.00,1226.09
             697.00,1226.09 687.00,1227.00 687.00,1227.00
             687.00,1227.00 667.00,1228.00 667.00,1228.00
             667.00,1228.00 633.00,1228.00 633.00,1228.00
             633.00,1228.00 613.00,1227.00 613.00,1227.00
             613.00,1227.00 603.00,1226.09 603.00,1226.09
             603.00,1226.09 572.00,1223.15 572.00,1223.15
             530.36,1218.18 489.74,1208.25 450.00,1195.00
             387.67,1174.22 327.22,1141.95 275.00,1102.12
             230.74,1068.35 191.30,1028.54 157.89,984.00
             106.48,915.45 70.59,835.76 52.79,752.00
             47.45,726.89 43.70,701.59 41.91,676.00
             41.91,676.00 41.00,664.00 41.00,664.00
             41.00,664.00 40.00,646.00 40.00,646.00
             40.00,646.00 40.00,614.00 40.00,614.00
             40.00,614.00 41.00,594.00 41.00,594.00
             41.00,594.00 41.91,584.00 41.91,584.00
             43.39,562.84 46.17,541.85 50.20,521.00
             60.42,468.04 76.74,418.58 100.26,370.00
             111.62,346.52 125.20,323.70 139.67,302.00
             218.10,184.36 333.42,100.85 468.00,59.02
             503.11,48.11 539.54,40.79 576.00,36.28
             576.00,36.28 614.00,33.00 614.00,33.00
             618.63,32.98 620.28,33.09 625.00,32.21 Z" />
      <path id="Selection #2"
        fill="#00bcd4" stroke="black" stroke-width="1"
        d="M 630.00,57.42
           C 646.06,55.47 665.73,57.81 682.00,58.00
             682.00,58.00 692.00,58.91 692.00,58.91
             732.19,61.67 772.22,68.53 811.00,79.58
             906.83,106.89 993.56,156.30 1065.00,226.01
             1065.00,226.01 1079.04,241.00 1079.04,241.00
             1139.90,304.65 1184.17,381.96 1210.02,466.00
             1218.81,494.55 1225.01,523.45 1229.27,553.00
             1229.27,553.00 1233.09,589.00 1233.09,589.00
             1233.09,589.00 1234.00,599.00 1234.00,599.00
             1234.00,599.00 1235.00,618.00 1235.00,618.00
             1235.00,618.00 1235.00,643.00 1235.00,643.00
             1235.00,643.00 1234.00,661.00 1234.00,661.00
             1234.00,661.00 1233.09,671.00 1233.09,671.00
             1233.09,671.00 1229.27,707.00 1229.27,707.00
             1224.62,739.27 1217.59,770.93 1207.66,802.00
             1181.02,885.33 1137.59,956.13 1078.09,1020.00
             1078.09,1020.00 1065.00,1033.99 1065.00,1033.99
             990.00,1107.17 895.64,1159.69 794.00,1185.11
             760.61,1193.45 726.29,1198.73 692.00,1201.09
             692.00,1201.09 682.00,1202.00 682.00,1202.00
             682.00,1202.00 662.00,1203.00 662.00,1203.00
             662.00,1203.00 638.00,1203.00 638.00,1203.00
             638.00,1203.00 618.00,1202.00 618.00,1202.00
             618.00,1202.00 608.00,1201.09 608.00,1201.09
             608.00,1201.09 577.00,1198.15 577.00,1198.15
             535.81,1193.23 498.29,1184.10 459.00,1171.00
             375.29,1143.10 298.15,1095.61 235.00,1033.99
             235.00,1033.99 221.91,1020.00 221.91,1020.00
             163.06,956.83 117.75,883.75 92.02,801.00
             82.13,769.17 75.48,739.98 70.73,707.00
             70.73,707.00 66.91,671.00 66.91,671.00
             66.91,671.00 66.00,661.00 66.00,661.00
             66.00,661.00 65.00,641.00 65.00,641.00
             65.00,641.00 65.00,619.00 65.00,619.00
             65.00,619.00 66.00,599.00 66.00,599.00
             66.00,599.00 66.91,589.00 66.91,589.00
             68.39,567.84 71.17,546.85 75.20,526.00
             85.13,474.55 101.41,426.18 124.26,379.00
             136.84,353.01 152.55,327.50 169.29,304.00
             187.86,277.94 208.50,252.76 231.00,230.00
             231.00,230.00 244.00,217.91 244.00,217.91
             311.96,154.63 389.02,109.52 478.00,82.72
             511.68,72.58 546.10,65.59 581.00,61.28
             581.00,61.28 619.00,58.00 619.00,58.00
             623.63,57.98 625.28,58.09 630.00,57.42 Z" />
     <path id="Selection #1"
        fill="#37474f" stroke="black" stroke-width="1"
        d="M 637.00,107.21
           C 637.00,107.21 657.00,107.21 657.00,107.21
             657.00,107.21 670.00,108.00 670.00,108.00
             670.00,108.00 697.00,109.83 697.00,109.83
             739.99,114.13 776.87,120.96 818.00,134.67
             889.63,158.54 947.58,190.43 1005.00,239.87
             1005.00,239.87 1031.91,264.09 1031.91,264.09
             1031.91,264.09 1057.13,292.00 1057.13,292.00
             1106.41,349.23 1139.85,409.92 1162.02,482.00
             1172.62,516.44 1178.59,549.22 1182.17,585.00
             1182.17,585.00 1184.00,606.00 1184.00,606.00
             1184.00,606.00 1185.00,636.00 1185.00,636.00
             1185.00,636.00 1184.00,654.00 1184.00,654.00
             1184.00,654.00 1182.17,675.00 1182.17,675.00
             1178.29,713.83 1171.56,748.75 1159.66,786.00
             1138.00,853.77 1103.53,914.12 1057.13,968.00
             1057.13,968.00 1031.91,995.91 1031.91,995.91
             1031.91,995.91 1005.00,1020.13 1005.00,1020.13
             939.72,1076.34 863.56,1115.63 780.00,1136.53
             748.90,1144.30 716.92,1148.89 685.00,1151.09
             685.00,1151.09 675.00,1152.00 675.00,1152.00
             675.00,1152.00 656.00,1153.00 656.00,1153.00
             656.00,1153.00 645.00,1153.00 645.00,1153.00
             645.00,1153.00 625.00,1152.00 625.00,1152.00
             625.00,1152.00 603.00,1150.17 603.00,1150.17
             556.98,1145.57 522.00,1138.67 478.00,1124.00
             409.15,1101.05 350.06,1067.54 295.00,1020.13
             295.00,1020.13 268.09,995.91 268.09,995.91
             268.09,995.91 242.87,968.00 242.87,968.00
             180.70,895.80 140.34,811.76 123.42,718.00
             120.80,703.44 116.17,668.12 116.00,654.00
             116.00,654.00 115.00,634.00 115.00,634.00
             115.00,634.00 116.00,606.00 116.00,606.00
             116.00,606.00 116.91,596.00 116.91,596.00
             116.91,596.00 120.87,559.00 120.87,559.00
             128.48,504.32 145.57,449.40 170.27,400.00
             193.62,353.29 224.91,309.70 260.96,272.00
             260.96,272.00 268.09,264.09 268.09,264.09
             268.09,264.09 295.00,239.87 295.00,239.87
             353.70,189.33 419.85,153.05 494.00,130.72
             524.90,121.41 556.90,114.60 589.00,111.16
             589.00,111.16 615.00,108.91 615.00,108.91
             615.00,108.91 625.00,108.00 625.00,108.00
             629.93,107.95 631.94,108.14 637.00,107.21 Z" />
  <path id="Selection"
        fill="white" stroke="black" stroke-width="1"
        d="M 688.00,718.00
           C 688.00,718.00 610.00,718.00 610.00,718.00
             599.46,717.98 594.35,713.19 587.00,705.99
             572.84,692.11 564.03,672.95 564.00,653.00
             564.00,653.00 564.00,463.00 564.00,463.00
             564.00,463.00 564.00,403.00 564.00,403.00
             564.00,390.01 563.00,368.98 565.45,357.00
             570.68,331.42 589.58,309.91 614.00,300.95
             622.97,297.67 631.44,296.01 641.00,296.00
             641.00,296.00 918.00,296.00 918.00,296.00
             951.20,296.05 980.16,316.69 991.30,348.00
             995.98,361.13 996.25,379.06 996.00,393.00
             995.86,400.49 993.74,399.99 987.00,400.00
             987.00,400.00 931.00,400.00 931.00,400.00
             931.00,400.00 931.00,385.00 931.00,385.00
             931.00,375.76 931.92,365.41 921.00,361.70
             918.58,360.88 915.55,361.00 913.00,361.00
             913.00,361.00 702.00,361.00 702.00,361.00
             702.00,361.00 656.00,361.00 656.00,361.00
             650.59,361.00 640.49,360.15 636.00,362.85
             628.59,367.33 628.01,374.23 628.00,382.00
             628.00,382.00 628.00,598.00 628.00,598.00
             628.00,598.00 628.00,635.00 628.00,635.00
             628.00,640.51 627.43,649.07 629.65,654.00
             633.27,662.04 639.18,662.99 647.00,663.00
             647.00,663.00 688.00,663.00 688.00,663.00
             688.00,663.00 688.00,718.00 688.00,718.00 Z
           M 829.00,492.00
           C 829.00,492.00 996.00,492.00 996.00,492.00
             996.00,492.00 996.00,646.00 996.00,646.00
             995.74,668.19 988.85,689.03 973.00,705.00
             965.24,712.81 960.38,717.98 949.00,718.00
             949.00,718.00 800.00,718.00 800.00,718.00
             800.00,718.00 800.00,663.00 800.00,663.00
             800.00,663.00 899.00,663.00 899.00,663.00
             910.12,663.00 926.72,666.18 930.44,652.00
             931.08,649.57 931.00,646.53 931.00,644.00
             931.00,644.00 931.00,557.00 931.00,557.00
             931.00,557.00 829.00,557.00 829.00,557.00
             829.00,557.00 829.00,492.00 829.00,492.00 Z
           M 341.00,962.00
           C 341.00,962.00 341.00,606.00 341.00,606.00
             341.07,564.01 376.31,530.07 418.00,530.00
             418.00,530.00 538.00,530.00 538.00,530.00
             538.00,530.00 538.00,595.00 538.00,595.00
             538.00,595.00 424.00,595.00 424.00,595.00
             411.52,595.02 406.02,599.14 406.00,612.00
             406.00,612.00 406.00,746.00 406.00,746.00
             406.00,746.00 708.00,746.00 708.00,746.00
             708.00,746.00 708.00,631.00 708.00,631.00
             708.00,619.82 711.47,599.87 698.00,595.65
             695.59,594.89 692.53,595.00 690.00,595.00
             690.00,595.00 654.00,595.00 654.00,595.00
             654.00,595.00 654.00,530.00 654.00,530.00
             654.00,530.00 697.00,530.00 697.00,530.00
             740.93,530.52 772.93,567.13 773.00,610.00
             773.00,610.00 773.00,962.00 773.00,962.00
             773.00,962.00 708.00,962.00 708.00,962.00
             708.00,962.00 708.00,811.00 708.00,811.00
             708.00,811.00 406.00,811.00 406.00,811.00
             406.00,811.00 406.00,962.00 406.00,962.00
             406.00,962.00 341.00,962.00 341.00,962.00 Z" />
</svg>
